<svg xmlns="http://www.w3.org/2000/svg" xmlns:xlink="http://www.w3.org/1999/xlink" width="500" zoomAndPan="magnify" viewBox="0 0 375 374.999991" height="500" preserveAspectRatio="xMidYMid meet" version="1.0"><rect x="-37.5" width="450" fill="#ffffff" y="-37.499999" height="449.999989" fill-opacity="1"/><rect x="-37.5" width="450" fill="#ffffff" y="-37.499999" height="449.999989" fill-opacity="1"/><path fill="#000000" d="M 251.179688 0 L 300.492188 0 C 301.460938 0 302.425781 0.046875 303.390625 0.140625 C 304.355469 0.238281 305.3125 0.378906 306.261719 0.570312 C 307.214844 0.757812 308.152344 0.992188 309.078125 1.273438 C 310.007812 1.554688 310.917969 1.882812 311.8125 2.253906 C 312.707031 2.625 313.582031 3.039062 314.4375 3.496094 C 315.292969 3.953125 316.121094 4.449219 316.929688 4.988281 C 317.734375 5.527344 318.511719 6.105469 319.261719 6.71875 C 320.007812 7.335938 320.726562 7.984375 321.410156 8.671875 C 322.097656 9.355469 322.746094 10.074219 323.359375 10.824219 C 323.976562 11.574219 324.550781 12.351562 325.089844 13.15625 C 325.628906 13.964844 326.125 14.792969 326.582031 15.648438 C 327.039062 16.503906 327.453125 17.378906 327.824219 18.277344 C 328.195312 19.171875 328.523438 20.082031 328.804688 21.011719 C 329.085938 21.9375 329.320312 22.878906 329.507812 23.828125 C 329.699219 24.78125 329.839844 25.738281 329.933594 26.703125 C 330.03125 27.667969 330.078125 28.636719 330.078125 29.605469 L 330.078125 345.394531 C 330.078125 346.363281 330.03125 347.332031 329.933594 348.296875 C 329.839844 349.261719 329.699219 350.21875 329.507812 351.171875 C 329.320312 352.121094 329.085938 353.058594 328.804688 353.988281 C 328.523438 354.917969 328.195312 355.828125 327.824219 356.722656 C 327.453125 357.621094 327.039062 358.496094 326.582031 359.351562 C 326.125 360.207031 325.628906 361.035156 325.089844 361.84375 C 324.550781 362.648438 323.976562 363.425781 323.359375 364.175781 C 322.746094 364.925781 322.097656 365.644531 321.410156 366.328125 C 320.726562 367.015625 320.007812 367.664062 319.261719 368.28125 C 318.511719 368.894531 317.734375 369.472656 316.929688 370.011719 C 316.121094 370.550781 315.292969 371.046875 314.4375 371.503906 C 313.582031 371.960938 312.707031 372.375 311.8125 372.746094 C 310.917969 373.117188 310.007812 373.441406 309.078125 373.726562 C 308.152344 374.007812 307.214844 374.242188 306.261719 374.429688 C 305.3125 374.621094 304.355469 374.761719 303.390625 374.855469 C 302.425781 374.953125 301.460938 375 300.492188 375 L 251.179688 375 C 250.210938 375 249.246094 374.953125 248.28125 374.855469 C 247.316406 374.761719 246.359375 374.621094 245.410156 374.429688 C 244.457031 374.242188 243.519531 374.007812 242.59375 373.726562 C 241.664062 373.441406 240.753906 373.117188 239.859375 372.746094 C 238.964844 372.375 238.089844 371.960938 237.234375 371.503906 C 236.378906 371.046875 235.550781 370.550781 234.742188 370.011719 C 233.9375 369.472656 233.160156 368.894531 232.410156 368.28125 C 231.664062 367.664062 230.945312 367.015625 230.261719 366.328125 C 229.574219 365.644531 228.925781 364.925781 228.308594 364.175781 C 227.695312 363.425781 227.117188 362.648438 226.582031 361.84375 C 226.042969 361.035156 225.542969 360.207031 225.089844 359.351562 C 224.632812 358.496094 224.21875 357.621094 223.847656 356.722656 C 223.476562 355.828125 223.148438 354.917969 222.867188 353.988281 C 222.585938 353.058594 222.351562 352.121094 222.164062 351.171875 C 221.972656 350.21875 221.832031 349.261719 221.738281 348.296875 C 221.640625 347.332031 221.59375 346.363281 221.59375 345.394531 L 221.59375 29.605469 C 221.59375 28.636719 221.640625 27.667969 221.738281 26.703125 C 221.832031 25.738281 221.972656 24.78125 222.164062 23.828125 C 222.351562 22.878906 222.585938 21.9375 222.867188 21.011719 C 223.148438 20.082031 223.476562 19.171875 223.847656 18.277344 C 224.21875 17.378906 224.632812 16.503906 225.089844 15.648438 C 225.542969 14.792969 226.042969 13.964844 226.582031 13.15625 C 227.117188 12.351562 227.695312 11.574219 228.308594 10.824219 C 228.925781 10.074219 229.574219 9.355469 230.261719 8.671875 C 230.945312 7.984375 231.664062 7.335938 232.410156 6.71875 C 233.160156 6.105469 233.9375 5.527344 234.742188 4.988281 C 235.550781 4.449219 236.378906 3.953125 237.234375 3.496094 C 238.089844 3.039062 238.964844 2.625 239.859375 2.253906 C 240.753906 1.882812 241.664062 1.554688 242.59375 1.273438 C 243.519531 0.992188 244.457031 0.757812 245.410156 0.570312 C 246.359375 0.378906 247.316406 0.238281 248.28125 0.140625 C 249.246094 0.046875 250.210938 0 251.179688 0 Z M 251.179688 0 " fill-opacity="1" fill-rule="nonzero"/><path fill="#000000" d="M 73.664062 0 L 122.976562 0 C 123.945312 0 124.910156 0.046875 125.875 0.140625 C 126.839844 0.238281 127.796875 0.378906 128.746094 0.570312 C 129.695312 0.757812 130.636719 0.992188 131.5625 1.273438 C 132.488281 1.554688 133.402344 1.882812 134.296875 2.253906 C 135.191406 2.625 136.066406 3.039062 136.921875 3.496094 C 137.777344 3.953125 138.605469 4.449219 139.410156 4.988281 C 140.21875 5.527344 140.996094 6.105469 141.742188 6.71875 C 142.492188 7.335938 143.210938 7.984375 143.894531 8.671875 C 144.582031 9.355469 145.230469 10.074219 145.84375 10.824219 C 146.460938 11.574219 147.035156 12.351562 147.574219 13.15625 C 148.113281 13.964844 148.609375 14.792969 149.066406 15.648438 C 149.523438 16.503906 149.9375 17.378906 150.308594 18.277344 C 150.679688 19.171875 151.003906 20.082031 151.285156 21.011719 C 151.566406 21.9375 151.804688 22.878906 151.992188 23.828125 C 152.179688 24.78125 152.324219 25.738281 152.417969 26.703125 C 152.511719 27.667969 152.558594 28.636719 152.558594 29.605469 L 152.558594 345.394531 C 152.558594 346.363281 152.511719 347.332031 152.417969 348.296875 C 152.324219 349.261719 152.179688 350.21875 151.992188 351.171875 C 151.804688 352.121094 151.566406 353.058594 151.285156 353.988281 C 151.003906 354.917969 150.679688 355.828125 150.308594 356.722656 C 149.9375 357.621094 149.523438 358.496094 149.066406 359.351562 C 148.609375 360.207031 148.113281 361.035156 147.574219 361.84375 C 147.035156 362.648438 146.460938 363.425781 145.84375 364.175781 C 145.230469 364.925781 144.578125 365.644531 143.894531 366.328125 C 143.210938 367.015625 142.492188 367.664062 141.742188 368.28125 C 140.996094 368.894531 140.21875 369.472656 139.410156 370.011719 C 138.605469 370.550781 137.777344 371.046875 136.921875 371.503906 C 136.066406 371.960938 135.191406 372.375 134.296875 372.746094 C 133.402344 373.117188 132.488281 373.441406 131.5625 373.726562 C 130.636719 374.007812 129.695312 374.242188 128.746094 374.429688 C 127.796875 374.621094 126.839844 374.761719 125.875 374.855469 C 124.910156 374.953125 123.941406 375 122.972656 375 L 73.664062 375 C 72.695312 375 71.726562 374.953125 70.765625 374.855469 C 69.800781 374.761719 68.84375 374.621094 67.890625 374.429688 C 66.941406 374.242188 66.003906 374.007812 65.074219 373.726562 C 64.148438 373.441406 63.238281 373.117188 62.34375 372.746094 C 61.445312 372.375 60.570312 371.960938 59.71875 371.503906 C 58.863281 371.046875 58.03125 370.550781 57.226562 370.011719 C 56.421875 369.472656 55.644531 368.894531 54.894531 368.28125 C 54.144531 367.664062 53.429688 367.015625 52.742188 366.328125 C 52.058594 365.644531 51.410156 364.925781 50.792969 364.175781 C 50.179688 363.425781 49.601562 362.648438 49.0625 361.84375 C 48.527344 361.035156 48.027344 360.207031 47.570312 359.351562 C 47.113281 358.496094 46.699219 357.621094 46.332031 356.722656 C 45.960938 355.828125 45.632812 354.917969 45.351562 353.988281 C 45.070312 353.058594 44.835938 352.121094 44.648438 351.171875 C 44.457031 350.21875 44.316406 349.261719 44.21875 348.296875 C 44.125 347.332031 44.078125 346.363281 44.078125 345.394531 L 44.078125 29.605469 C 44.078125 28.636719 44.125 27.667969 44.21875 26.703125 C 44.316406 25.738281 44.457031 24.78125 44.648438 23.828125 C 44.835938 22.878906 45.070312 21.9375 45.351562 21.011719 C 45.632812 20.082031 45.960938 19.171875 46.332031 18.277344 C 46.699219 17.378906 47.113281 16.503906 47.570312 15.648438 C 48.027344 14.792969 48.527344 13.964844 49.0625 13.15625 C 49.601562 12.351562 50.179688 11.574219 50.792969 10.824219 C 51.410156 10.074219 52.058594 9.355469 52.742188 8.671875 C 53.429688 7.984375 54.144531 7.335938 54.894531 6.71875 C 55.644531 6.105469 56.421875 5.527344 57.226562 4.988281 C 58.03125 4.449219 58.863281 3.953125 59.71875 3.496094 C 60.570312 3.039062 61.445312 2.625 62.34375 2.253906 C 63.238281 1.882812 64.148438 1.554688 65.074219 1.273438 C 66.003906 0.992188 66.941406 0.757812 67.890625 0.570312 C 68.84375 0.378906 69.800781 0.238281 70.765625 0.140625 C 71.726562 0.046875 72.695312 0 73.664062 0 Z M 73.664062 0 " fill-opacity="1" fill-rule="nonzero"/></svg>