<svg xmlns="http://www.w3.org/2000/svg" xmlns:xlink="http://www.w3.org/1999/xlink" width="500" zoomAndPan="magnify" viewBox="0 0 375 374.999991" height="500" preserveAspectRatio="xMidYMid meet" version="1.0"><defs><clipPath id="bde474084e"><path d="M 23.4375 1 L 351.9375 1 L 351.9375 374 L 23.4375 374 Z M 23.4375 1 " clip-rule="nonzero"/></clipPath></defs><rect x="-37.5" width="450" fill="#ffffff" y="-37.499999" height="449.999989" fill-opacity="1"/><rect x="-37.5" width="450" fill="#ffffff" y="-37.499999" height="449.999989" fill-opacity="1"/><g clip-path="url(#bde474084e)"><path fill="#000000" d="M 340.683594 167.84375 L 58.34375 5.03125 C 51.171875 0.898438 42.359375 0.898438 35.191406 5.03125 C 28.027344 9.15625 23.617188 16.789062 23.617188 25.054688 L 23.617188 350.710938 C 23.617188 358.976562 28.027344 366.609375 35.191406 370.734375 C 38.773438 372.828125 42.773438 373.835938 46.769531 373.835938 C 50.765625 373.835938 54.761719 372.796875 58.34375 370.734375 L 340.683594 207.921875 C 347.863281 203.789062 352.25 196.15625 352.25 187.890625 C 352.25 179.625 347.847656 171.984375 340.683594 167.84375 Z M 340.683594 167.84375 " fill-opacity="1" fill-rule="nonzero"/></g></svg>